<?xml version="1.0" encoding="utf-8"?>
<!-- Generator: Adobe Illustrator 24.3.0, SVG Export Plug-In . SVG Version: 6.00 Build 0)  -->
<svg version="1.1" id="Layer_1" xmlns="http://www.w3.org/2000/svg" xmlns:xlink="http://www.w3.org/1999/xlink" x="0px" y="0px"
	 viewBox="0 0 948.7 387.6" style="enable-background:new 0 0 948.7 387.6;" xml:space="preserve">
<style type="text/css">
	.st0{fill:#00C863;}
	.st1{fill:#FFFFFF;}
	.st2{fill:#000037;}
</style>
<g>
	<path class="st0" d="M367.5,122.3h-13.3c0,6.4-5.1,11.5-11.5,11.5v13.4C356.4,147.2,367.5,136,367.5,122.3z"/>
	<g>
		<g>
			<path class="st1" d="M321.4,285.8v-48.4h30.5v4.8h-25.6v16.7h21.5v4.7h-21.5V281h25.6v4.7L321.4,285.8L321.4,285.8z"/>
			<path class="st1" d="M376,286.8c-3.4,0-6.3-0.8-8.8-2.6c-2.4-1.7-4.3-4-5.6-6.9c-1.3-2.9-1.9-6.2-1.9-9.8s0.6-6.9,1.9-9.8
				c1.3-2.9,3.1-5.2,5.5-6.9s5.3-2.5,8.6-2.5c3.4,0,6.3,0.8,8.7,2.5c2.4,1.7,4.2,3.9,5.3,6.8c1.2,2.9,1.8,6.2,1.8,9.8
				c0,3.6-0.6,6.9-1.8,9.8c-1.2,2.9-3,5.2-5.3,6.9C382.2,285.9,379.4,286.8,376,286.8z M376.5,282.2c2.6,0,4.8-0.6,6.4-1.9
				c1.7-1.3,3-3,3.8-5.2c0.8-2.2,1.3-4.7,1.3-7.5c0-2.9-0.4-5.4-1.3-7.5c-0.8-2.2-2.1-3.9-3.8-5.1c-1.7-1.2-3.8-1.9-6.4-1.9
				c-2.6,0-4.8,0.6-6.5,1.9c-1.7,1.3-3,3-3.8,5.2c-0.8,2.2-1.3,4.6-1.3,7.4c0,2.7,0.4,5.3,1.3,7.5c0.8,2.2,2.1,4,3.8,5.2
				C371.9,281.5,374,282.2,376.5,282.2z M388,285.8v-27.3h-0.5v-21.1h5v48.4L388,285.8L388,285.8z"/>
			<path class="st1" d="M417.7,286.7c-2.2,0-4.1-0.3-5.8-1c-1.6-0.7-3-1.6-4.2-2.7c-1.1-1.1-2.1-2.4-2.8-3.9c-0.7-1.4-1.2-3-1.5-4.7
				c-0.3-1.7-0.5-3.3-0.5-4.9v-20h5V268c0,2,0.2,3.8,0.6,5.6c0.4,1.7,1,3.2,1.9,4.5c0.9,1.3,1.9,2.2,3.3,2.9s3,1,4.9,1
				c1.8,0,3.3-0.3,4.7-0.9c1.3-0.6,2.5-1.5,3.4-2.6c0.9-1.1,1.6-2.5,2.1-4.2c0.5-1.6,0.7-3.5,0.7-5.5l3.5,0.8c0,3.7-0.6,6.9-2,9.4
				c-1.3,2.5-3.1,4.5-5.4,5.8C423.4,286,420.8,286.7,417.7,286.7z M430.1,285.8v-9h-0.5v-27.3h5v36.3L430.1,285.8L430.1,285.8z"/>
			<path class="st1" d="M461,286.8c-3.7,0-6.8-0.8-9.4-2.4c-2.6-1.6-4.5-3.9-5.8-6.8c-1.3-2.9-2-6.2-2.1-9.9c0-3.8,0.8-7.2,2.1-10
				s3.3-5.1,5.9-6.7c2.6-1.6,5.7-2.4,9.3-2.4c3.7,0,6.9,0.9,9.7,2.7c2.7,1.8,4.6,4.3,5.6,7.4l-4.9,1.6c-0.9-2.2-2.2-3.8-4.1-5.1
				c-1.9-1.2-4-1.8-6.4-1.8c-2.7,0-4.9,0.6-6.7,1.8c-1.8,1.2-3.1,2.9-3.9,5.1c-0.9,2.2-1.3,4.7-1.3,7.5c0,4.3,1.1,7.8,3,10.5
				c2,2.6,5,4,8.9,4c2.5,0,4.6-0.6,6.4-1.7c1.8-1.1,3.1-2.8,4-5l5,1.5c-1.4,3.2-3.4,5.7-6,7.4S464.6,286.8,461,286.8z"/>
			<path class="st1" d="M495.3,286.8c-2.8,0-5.1-0.5-6.9-1.5c-1.9-1-3.3-2.3-4.2-3.9c-0.9-1.6-1.4-3.4-1.4-5.3c0-2,0.4-3.7,1.2-5.1
				c0.8-1.4,1.9-2.6,3.3-3.4c1.4-0.9,3-1.6,4.8-2.1c1.9-0.5,3.9-0.8,6.2-1.2c2.2-0.3,4.5-0.6,6.6-0.9c2.2-0.3,4.1-0.5,5.7-0.8
				l-1.8,1.1c0.1-3.6-0.6-6.2-2.1-8c-1.5-1.7-4-2.6-7.7-2.6c-2.5,0-4.6,0.6-6.4,1.7s-2.9,2.9-3.7,5.3l-4.8-1.4
				c0.8-3.2,2.5-5.8,5.1-7.6c2.6-1.8,5.8-2.7,9.9-2.7c3.4,0,6.2,0.6,8.5,1.9c2.3,1.3,4,3,5,5.4c0.5,1.1,0.8,2.2,0.9,3.5
				c0.2,1.3,0.2,2.6,0.2,4v22.5h-4.5v-9.1l1.3,0.5c-1.3,3.1-3.2,5.5-5.8,7.1C502.1,286,498.9,286.8,495.3,286.8z M495.9,282.5
				c2.3,0,4.4-0.4,6.1-1.3c1.8-0.8,3.2-2,4.2-3.4c1.1-1.4,1.8-3.1,2.1-4.9c0.3-1.2,0.4-2.4,0.5-3.8c0-1.4,0-2.4,0-3.1l1.9,1
				c-1.7,0.2-3.5,0.5-5.5,0.7c-2,0.2-3.9,0.5-5.8,0.8c-1.9,0.3-3.7,0.6-5.2,1c-1,0.3-2.1,0.7-3,1.2c-1,0.5-1.8,1.2-2.4,2.1
				c-0.6,0.9-1,1.9-1,3.3c0,1.1,0.3,2.1,0.8,3c0.5,1,1.4,1.8,2.6,2.4C492.3,282.2,493.9,282.5,495.9,282.5z"/>
			<path class="st1" d="M520.2,253.7v-4.2h24v4.2H520.2z M544.2,285.8c-2.1,0.4-4.1,0.6-6.1,0.5c-2-0.1-3.8-0.5-5.4-1.3
				c-1.6-0.8-2.8-1.9-3.6-3.6c-0.6-1.3-1-2.7-1.1-4.1c0-1.4-0.1-2.9-0.1-4.7v-33.2h5v33c0,1.5,0,2.8,0,3.8c0,1,0.3,1.9,0.7,2.7
				c0.8,1.5,2.1,2.4,3.9,2.7c1.8,0.3,4,0.2,6.6-0.2L544.2,285.8L544.2,285.8z"/>
			<path class="st1" d="M553.8,242.6V237h5v5.6H553.8z M553.8,285.8v-36.3h5v36.3H553.8z"/>
			<path class="st1" d="M586,286.8c-3.7,0-6.7-0.8-9.3-2.4c-2.6-1.6-4.6-3.9-5.9-6.8s-2.1-6.2-2.1-9.9c0-3.8,0.7-7.2,2.1-10
				c1.4-2.9,3.4-5.1,6-6.7s5.7-2.4,9.3-2.4c3.7,0,6.8,0.8,9.4,2.4c2.6,1.6,4.6,3.9,5.9,6.7c1.4,2.9,2.1,6.2,2.1,9.9
				c0,3.8-0.7,7.2-2.1,10c-1.4,2.9-3.4,5.1-6,6.7C592.7,286,589.6,286.8,586,286.8z M586,282.1c4.1,0,7.1-1.3,9.1-4s3-6.2,3-10.4
				c0-4.4-1-7.9-3-10.5c-2-2.6-5-3.9-9.1-3.9c-2.7,0-5,0.6-6.8,1.8c-1.8,1.2-3.1,2.9-4,5.1c-0.9,2.2-1.3,4.6-1.3,7.5
				c0,4.4,1,7.9,3,10.5C579,280.7,582,282.1,586,282.1z"/>
			<path class="st1" d="M612.5,285.8v-36.3h4.5v9h0.5v27.3L612.5,285.8L612.5,285.8z M639,285.8v-18.5c0-2-0.2-3.9-0.6-5.6
				c-0.4-1.7-1-3.2-1.9-4.4c-0.8-1.3-1.9-2.2-3.3-2.9c-1.3-0.7-3-1-4.9-1c-1.8,0-3.3,0.3-4.7,0.9c-1.3,0.6-2.5,1.5-3.4,2.6
				c-0.9,1.1-1.6,2.5-2.1,4.1c-0.5,1.6-0.7,3.5-0.7,5.5l-3.5-0.8c0-3.7,0.6-6.9,2-9.4c1.3-2.5,3.1-4.5,5.4-5.8c2.3-1.3,5-1.9,8-1.9
				c2.2,0,4.1,0.3,5.8,1c1.6,0.7,3,1.6,4.2,2.7c1.1,1.1,2.1,2.4,2.8,3.9c0.7,1.5,1.2,3,1.5,4.7c0.3,1.6,0.5,3.3,0.5,4.9v20
				L639,285.8L639,285.8z"/>
			<path class="st1" d="M689.4,286.8c-3.4,0-6.6-0.6-9.3-1.8c-2.8-1.2-5.1-2.9-7-5.1c-1.9-2.2-3.4-4.8-4.4-8
				c-1-3.1-1.5-6.6-1.5-10.4c0-5.1,0.9-9.5,2.7-13.3s4.3-6.7,7.7-8.8c3.3-2.1,7.3-3.1,12-3.1c5.2,0,9.4,1.2,12.7,3.6
				c3.3,2.4,5.6,5.6,6.9,9.7l-5,1.2c-1.1-3-2.8-5.3-5.3-7.1c-2.4-1.8-5.4-2.7-9.1-2.7c-3.8,0-7,0.8-9.5,2.6
				c-2.6,1.7-4.5,4.1-5.7,7.2c-1.3,3.1-1.9,6.6-1.9,10.7c0,4,0.6,7.6,1.9,10.6c1.3,3,3.2,5.4,5.8,7.2c2.6,1.8,5.8,2.6,9.6,2.6
				c3.5,0,6.4-0.7,8.7-2c2.3-1.3,4-3.3,5.2-5.8c1.2-2.5,1.9-5.5,2-8.9h-11.3v-4.2h16.5c0.1,0.5,0.1,1.1,0.1,1.6c0,0.6,0,1,0,1.2
				c0,4.4-0.8,8.3-2.4,11.7c-1.6,3.4-4,6.1-7.2,8.1C698.2,285.8,694.2,286.8,689.4,286.8z"/>
			<path class="st1" d="M719.4,285.8v-36.3h4.5v8.7l-0.9-1.1c0.4-1.1,1-2.1,1.6-3c0.6-0.9,1.4-1.6,2.1-2.2c1-0.8,2.1-1.4,3.3-1.9
				c1.3-0.5,2.6-0.7,3.8-0.8s2.5,0,3.5,0.3v4.6c-1.3-0.3-2.8-0.4-4.4-0.2c-1.6,0.2-3,0.8-4.4,1.9c-1.2,1-2.1,2.1-2.7,3.4
				c-0.6,1.3-1,2.7-1.2,4.2c-0.2,1.5-0.3,2.9-0.3,4.3v18.1L719.4,285.8L719.4,285.8z"/>
			<path class="st1" d="M760.2,286.8c-3.7,0-6.7-0.8-9.3-2.4c-2.6-1.6-4.6-3.9-5.9-6.8s-2.1-6.2-2.1-9.9c0-3.8,0.7-7.2,2.1-10
				c1.4-2.9,3.4-5.1,6-6.7s5.7-2.4,9.3-2.4c3.7,0,6.8,0.8,9.4,2.4c2.6,1.6,4.6,3.9,5.9,6.7c1.4,2.9,2.1,6.2,2.1,9.9
				c0,3.8-0.7,7.2-2.1,10c-1.4,2.9-3.4,5.1-6,6.7C767,286,763.8,286.8,760.2,286.8z M760.2,282.1c4.1,0,7.1-1.3,9.1-4
				c2-2.7,3-6.2,3-10.4c0-4.4-1-7.9-3-10.5c-2-2.6-5-3.9-9.1-3.9c-2.7,0-5,0.6-6.8,1.8c-1.8,1.2-3.1,2.9-4,5.1s-1.3,4.6-1.3,7.5
				c0,4.4,1,7.9,3,10.5C753.3,280.7,756.3,282.1,760.2,282.1z"/>
			<path class="st1" d="M800.8,286.7c-2.2,0-4.1-0.3-5.8-1c-1.6-0.7-3-1.6-4.2-2.7c-1.1-1.1-2.1-2.4-2.8-3.9c-0.7-1.4-1.2-3-1.5-4.7
				s-0.5-3.3-0.5-4.9v-20h5V268c0,2,0.2,3.8,0.6,5.6c0.4,1.7,1,3.2,1.9,4.5c0.9,1.3,1.9,2.2,3.3,2.9s3,1,4.9,1
				c1.8,0,3.3-0.3,4.7-0.9c1.3-0.6,2.5-1.5,3.4-2.6c0.9-1.1,1.6-2.5,2.1-4.2c0.5-1.6,0.7-3.5,0.7-5.5l3.5,0.8c0,3.7-0.6,6.9-2,9.4
				c-1.3,2.5-3.1,4.5-5.4,5.8C806.4,286,803.8,286.7,800.8,286.7z M813.1,285.8v-9h-0.5v-27.3h5v36.3L813.1,285.8L813.1,285.8z"/>
			<path class="st1" d="M828.8,301.9v-52.4h4.5v27.3h0.5v25.1L828.8,301.9L828.8,301.9z M845.3,286.8c-3.4,0-6.2-0.8-8.6-2.6
				c-2.3-1.7-4.1-4-5.3-6.9c-1.2-2.9-1.8-6.2-1.8-9.8c0-3.7,0.6-7,1.8-9.8c1.2-2.9,3-5.1,5.3-6.8s5.3-2.5,8.7-2.5
				c3.4,0,6.2,0.8,8.6,2.5c2.4,1.7,4.2,4,5.5,6.9c1.3,2.9,1.9,6.1,1.9,9.8s-0.6,6.9-1.9,9.8s-3.2,5.2-5.6,6.9
				C851.6,285.9,848.7,286.8,845.3,286.8z M844.7,282.2c2.6,0,4.7-0.6,6.4-1.9c1.7-1.3,3-3,3.8-5.2c0.8-2.2,1.3-4.7,1.3-7.5
				c0-2.7-0.4-5.2-1.3-7.4c-0.8-2.2-2.1-3.9-3.8-5.2c-1.7-1.3-3.9-1.9-6.5-1.9c-2.6,0-4.7,0.6-6.4,1.9c-1.7,1.2-2.9,2.9-3.8,5.1
				c-0.8,2.2-1.3,4.7-1.3,7.5c0,2.8,0.4,5.3,1.3,7.5c0.8,2.2,2.1,3.9,3.8,5.2C840,281.6,842.2,282.2,844.7,282.2z"/>
		</g>
	</g>
	<path class="st1" d="M324.3,184.7c3.7-1.6,6.8-3.9,9-7c3.6-5.1,5.4-11.2,5.4-18.3c0-4.8-0.8-9.1-2.3-13c-1.6-3.9-4-7.1-7.2-9.7
		c-3.3-2.6-7.5-4.2-12.6-5c-1.1-0.2-2.4-0.3-3.8-0.4c-1.4-0.1-2.6-0.1-3.4-0.1H273v85.1h16.2v-28.8h18.1l14.1,28.8h18.4L324.3,184.7
		z M321.7,164.2c-0.5,1.7-1.3,3.3-2.5,4.7c-1.2,1.4-2.9,2.4-5.1,3c-0.8,0.2-1.8,0.4-2.7,0.5c-1,0.1-1.9,0.1-2.7,0.1h-19.3v-26.2
		h19.3c0.8,0,1.8,0,2.7,0.1c1,0.1,1.9,0.2,2.7,0.5c2.2,0.6,3.9,1.6,5.1,3c1.2,1.4,2,3,2.5,4.7c0.5,1.7,0.7,3.4,0.7,4.9
		C322.3,160.9,322.1,162.5,321.7,164.2z"/>
	<path class="st1" d="M480,152.5l-15.3,44.2l-15.3-44.2h-16.2l23.4,63.8h16.2l23.4-63.8H480z M544.7,155c-4.9-2.9-10.6-4.3-17.1-4.3
		c-6.4,0-12,1.4-16.9,4.3c-4.9,2.9-8.7,6.8-11.5,11.8c-2.8,5.1-4.2,10.9-4.2,17.6c0,6.6,1.4,12.4,4.1,17.5c2.7,5.1,6.6,9,11.4,11.9
		c4.9,2.9,10.6,4.3,17.1,4.3c6.4,0,12.1-1.4,17.1-4.3c4.9-2.9,8.8-6.8,11.5-11.9c2.8-5.1,4.2-10.9,4.2-17.5c0-6.6-1.4-12.4-4.1-17.5
		C553.5,161.9,549.6,157.9,544.7,155z M539.3,197.8c-2.6,3.5-6.5,5.2-11.7,5.2c-5.1,0-8.9-1.7-11.5-5.1c-2.6-3.4-3.9-7.9-3.9-13.6
		c0-3.7,0.5-7,1.6-9.8c1.1-2.8,2.8-5,5.1-6.6c2.3-1.6,5.2-2.4,8.7-2.4c5.1,0,9,1.7,11.6,5.1c2.6,3.4,3.9,7.9,3.9,13.6
		C543.2,189.9,541.9,194.3,539.3,197.8z M374.7,216.3h56.1v-15h-39.9v-21.9h32.7v-15h-32.7v-18.2h39.9v-15h-56.1L374.7,216.3
		L374.7,216.3z M683.1,134.7h-16.2v17.7h-14.5H651h-15v32.4c0,4-0.5,7.1-1.3,9.6c-0.9,2.4-2.1,4.3-3.4,5.5c-1.4,1.3-2.9,2.1-4.5,2.5
		c-1.6,0.4-3.1,0.6-4.5,0.6c-3.5,0-6.1-0.8-8-2.3c-1.9-1.5-3.2-3.4-4.1-5.8c-0.8-2.3-1.3-4.6-1.5-6.8c-0.2-2.2-0.2-4.1-0.2-5.6
		v-30.1H592v35.8c0,1.1,0.1,2.7,0.2,5.1c0.2,2.3,0.6,4.9,1.4,7.7c0.8,2.8,2,5.5,3.8,8.1c1.8,2.6,4.3,4.8,7.4,6.4
		c3.2,1.7,7.3,2.6,12.3,2.6c6.3,0,11.6-1.4,15.7-4.1c1.9-1.3,3.7-2.8,5.2-4.4v6.6h14.3v-49h14.5v21.9c0,3.8,0,7.2,0.1,10.2
		c0.1,3,0.9,6,2.5,8.9c1.8,3.1,4.3,5.4,7.7,6.8c3.4,1.4,7.2,2.1,11.5,2.2c1.9,0,5.5,0,7.2-0.1v-13.7c-0.8,0-3.5,0-4.5-0.1
		c-3.2-0.2-5.4-1.4-6.9-3.7c-0.8-1.2-1.2-2.8-1.2-4.8c-0.1-2-0.1-4.2-0.1-6.7v-21h12.4v-14.9h-12.4L683.1,134.7L683.1,134.7z
		 M861,175.4c-0.2-2.3-0.6-4.9-1.4-7.7s-2-5.5-3.8-8.1c-1.8-2.6-4.2-4.8-7.4-6.4c-3.2-1.7-7.3-2.6-12.3-2.6
		c-6.3,0-11.6,1.4-15.7,4.1c-2,1.3-3.7,2.8-5.2,4.4v-6.6h-14.4v63.8h16.5V184c0-4,0.5-7.2,1.3-9.6s2.1-4.2,3.4-5.5
		c1.4-1.3,2.9-2.1,4.5-2.5s3.1-0.6,4.5-0.6c3.5,0,6.1,0.8,8,2.3c1.9,1.5,3.2,3.4,4.1,5.8c0.8,2.3,1.3,4.6,1.5,6.8
		c0.2,2.2,0.2,4.1,0.2,5.6v30.1h16.5v-35.8C861.2,179.4,861.1,177.7,861,175.4z M778,155c-4.9-2.9-10.6-4.3-17.1-4.3
		c-6.4,0-12,1.4-16.9,4.3c-4.9,2.9-8.7,6.8-11.5,11.8c-2.8,5.1-4.2,10.9-4.2,17.6c0,6.6,1.4,12.4,4.1,17.5c2.7,5.1,6.6,9,11.4,11.9
		c4.9,2.9,10.6,4.3,17.1,4.3c6.4,0,12.1-1.4,17.1-4.3c4.9-2.9,8.8-6.8,11.5-11.9c2.8-5.1,4.2-10.9,4.2-17.5c0-6.6-1.4-12.4-4.1-17.5
		C786.7,161.9,782.9,157.9,778,155z M772.6,197.8c-2.6,3.5-6.5,5.2-11.7,5.2c-5.1,0-8.9-1.7-11.5-5.1c-2.6-3.4-3.9-7.9-3.9-13.6
		c0-3.7,0.5-7,1.6-9.8c1.1-2.8,2.8-5,5.1-6.6c2.3-1.6,5.2-2.4,8.7-2.4c5.1,0,9,1.7,11.6,5.1c2.6,3.4,3.9,7.9,3.9,13.6
		C776.4,189.9,775.1,194.3,772.6,197.8z M564.9,216.3h16.2v-86.9h-16.2V216.3z M703.7,216.3h16.2v-63.8h-16.2V216.3z"/>
	<g>
		<rect x="87.2" y="152.8" class="st1" width="133.1" height="133.1"/>
		<g>
			<path class="st1" d="M187.4,153h-33.2c0-18.9-15.3-34.2-34.2-34.2V85.6C157.2,85.6,187.4,115.9,187.4,153z"/>
			<g>
				<path class="st2" d="M187.4,254.6h-33.2c0-18.9-15.3-34.2-34.2-34.2v-33.2C157.2,187.2,187.4,217.4,187.4,254.6z"/>
			</g>
			<path class="st1" d="M187.4,153h-33.2c0,18.9-15.3,34.2-34.2,34.2v33.2C157.2,220.4,187.4,190.2,187.4,153z"/>
			<path class="st0" d="M187.4,153h-33.2c0,18.9-15.3,34.2-34.2,34.2v33.2C157.2,220.4,187.4,190.2,187.4,153z"/>
		</g>
	</g>
</g>
</svg>
